# xmcd
#
# Track frame offsets:
# 150
# 15250
# 30820
# 45935
# 57542
# 74202
# 87092
# 102212
# 116340
# 128192
# 144297
#
# Disc length: 2229 seconds
#
#
# Revision: 0
# Processed by: cddbd v1.5.1PL2 Copyright (c) Steve Scherf et al.
# Submitted via: FreeRIP 2.942 
#
DISCID=8408b30b
DTITLE=Claudy Blue Sky - Dedication
DYEAR=2000
DGENRE=Country
TTITLE0=Down At The Twist And Shout
TTITLE1=Independence Day
TTITLE2=Me And Bobby McGee
TTITLE3=Rocky Top
TTITLE4=The Boxer
TTITLE5=Lodi
TTITLE6=Love Lifted Me
TTITLE7=Boat On The River
TTITLE8=Teach Your Children
TTITLE9=Daddy Laid The Blues On Me
TTITLE10=Vorbei
EXTD=Die sympatischen Country-Mädels aus Berlin\nClaudy Sky und E.Z. Blue\nMany Greats to E.Z. Blue from Axel and same xxxxx
EXTT0=
EXTT1=
EXTT2=
EXTT3=
EXTT4=
EXTT5=
EXTT6=
EXTT7=
EXTT8=
EXTT9=
EXTT10=
PLAYORDER=
